#!OML:ASF E:\Style4\Style4.ASF
:FULLY-SPECIFIED
:DEGREES
2640
root 0.394645 17.8754 -2.11785 9.15248 -7.50729 2.70953
lowerback 15.1901 0.781024 -5.57433
upperback 10.456 0.32586 3.19278
thorax 2.61216 -0.257785 6.49937
lowerneck 7.52795 -0.126128 -8.84737
upperneck 7.88491 -0.783181 1.13483
head 1.26248 -0.618316 1.87923
rclavicle 2.82274e-014 -1.66979e-014
rhumerus 67.5058 -23.7845 -36.7851
rradius 122.816
rwrist -73.6629
rhand -1.76095 9.95746
rfingers 7.12502
rthumb 23.9027 -18.575
lclavicle 2.82274e-014 -1.66979e-014
lhumerus -40.9262 -54.179 79.5679
lradius 124.12
lwrist 47.5738
lhand 1.1724 31.2425
lfingers 7.12502
lthumb 26.7128 59.3771
rfemur -28.0789 3.20935 15.4326
rtibia 34.2532
rfoot -14.8353 -10.8952
rtoes -9.67927
lfemur -24.1091 2.7414 -23.758
ltibia 31.448
lfoot -17.8383 12.5402
ltoes -9.81297
2641
root 0.393084 17.8895 -2.1226 9.30023 -7.54509 2.70029
lowerback 15.1032 0.777459 -5.56898
upperback 10.4147 0.32577 3.22682
thorax 2.61308 -0.257458 6.53251
lowerneck 7.60143 -0.0779885 -9.1025
upperneck 7.75923 -0.747569 1.19092
head 1.21047 -0.603646 1.94339
rclavicle -2.38542e-014 -1.59028e-014
rhumerus 67.977 -23.5259 -36.9608
rradius 122.567
rwrist -73.6575
rhand -1.315 10.2538
rfingers 7.12502
rthumb 24.3302 -18.2219
lclavicle -2.38542e-014 -1.59028e-014
lhumerus -38.9655 -53.2536 77.1121
lradius 124.088
lwrist 47.2986
lhand 1.96735 31.3777
lfingers 7.12502
lthumb 27.4734 59.3939
rfemur -28.0966 3.29911 15.4198
rtibia 33.9375
rfoot -14.66 -10.9483
rtoes -9.89762
lfemur -24.0692 2.71581 -23.7487
ltibia 31.0722
lfoot -17.6367 12.6496
ltoes -10.0622
2642
root 0.39186 17.9015 -2.12908 9.43207 -7.627 2.66191
lowerback 15.0706 0.795032 -5.5282
upperback 10.3543 0.354506 3.25087
thorax 2.5592 -0.238029 6.53074
lowerneck 7.63368 -0.0512415 -9.28855
upperneck 7.72423 -0.729551 1.22694
head 1.1948 -0.598423 1.98883
rclavicle 1.59028e-015 -2.38542e-015
rhumerus 68.365 -23.2914 -37.0901
rradius 122.309
rwrist -73.795
rhand -1.03557 10.5198
rfingers 7.12502
rthumb 24.5981 -17.9198
lclavicle 1.59028e-015 -2.38542e-015
lhumerus -37.0356 -52.3272 74.7508
lradius 124.075
lwrist 47.1928
lhand 2.47514 31.8456
lfingers 7.12502
lthumb 27.9589 59.7836
rfemur -28.1278 3.42938 15.4413
rtibia 33.6722
rfoot -14.5007 -10.9955
rtoes -9.85138
lfemur -24.0363 2.73201 -23.7125
ltibia 30.7356
lfoot -17.5094 12.7384
ltoes -9.96608
2643
root 0.392386 17.9109 -2.13494 9.57918 -7.70519 2.66816
lowerback 15.0241 0.815884 -5.50615
upperback 10.2922 0.38633 3.23466
thorax 2.51043 -0.216621 6.49575
lowerneck 7.66391 -0.0392632 -9.3829
upperneck 7.66107 -0.725393 1.26274
head 1.17013 -0.596776 2.01781
rclavicle -2.82274e-014 2.14687e-014
rhumerus 68.6894 -23.1169 -37.2679
rradius 122.044
rwrist -74.0598
rhand -0.858408 10.7728
rfingers 7.12502
rthumb 24.7679 -17.6435
lclavicle -2.82274e-014 2.14687e-014
lhumerus -35.0828 -51.3676 72.3642
lradius 124.095
lwrist 47.1738
lhand 3.00796 32.3369
lfingers 7.12502
lthumb 28.4682 60.1909
rfemur -28.2188 3.51586 15.4009
rtibia 33.4599
rfoot -14.3477 -10.9797
rtoes -9.63905
lfemur -24.0626 2.72576 -23.728
ltibia 30.4492
lfoot -17.4269 12.8178
ltoes -9.76288
2644
root 0.391399 17.9186 -2.14161 9.67657 -7.74399 2.74458
lowerback 15.01 0.829465 -5.58157
upperback 10.2557 0.396352 3.21742
thorax 2.47769 -0.212446 6.51903
lowerneck 7.61788 -0.0133424 -9.45367
upperneck 7.64256 -0.691557 1.26897
head 1.17071 -0.581222 2.03219
rclavicle -1.15295e-014 -1.19271e-014
rhumerus 69.0071 -22.8334 -37.4753
rradius 121.812
rwrist -74.2788
rhand -0.695794 10.9706
rfingers 7.12502
rthumb 24.9238 -17.4242
lclavicle -1.15295e-014 -1.19271e-014
lhumerus -33.2065 -50.4222 70.1838
lradius 124.019
lwrist 47.3687
lhand 3.05252 32.4982
lfingers 7.12502
lthumb 28.5107 60.345
rfemur -28.2915 3.56503 15.2965
rtibia 33.3133
rfoot -14.2558 -10.9996
rtoes -9.5559
lfemur -24.0694 2.7413 -23.8146
ltibia 30.2115
lfoot -17.2801 12.8435
ltoes -9.84639
2645
root 0.389503 17.9233 -2.15102 9.78899 -7.73468 2.77925
lowerback 14.9922 0.827106 -5.6182
upperback 10.2183 0.390266 3.21293
thorax 2.44784 -0.21481 6.5358
lowerneck 7.53042 0.0138989 -9.52051
upperneck 7.67207 -0.651027 1.28816
head 1.19346 -0.56356 2.05017
rclavicle 9.14409e-015 1.90833e-014
rhumerus 69.2808 -22.4786 -37.619
rradius 121.525
rwrist -74.4871
rhand -0.508718 11.2192
rfingers 7.12502
rthumb 25.103 -17.1507
lclavicle 9.14409e-015 1.90833e-014
lhumerus -31.3958 -49.4739 68.1521
lradius 123.945
lwrist 47.7914
lhand 2.70048 32.6717
lfingers 7.12502
lthumb 28.1743 60.5744
rfemur -28.4117 3.6059 15.2495
rtibia 33.2384
rfoot -14.1628 -11.0555
rtoes -9.64451
lfemur -24.1338 2.74238 -23.8501
ltibia 30.0193
lfoot -17.0955 12.8629
ltoes -9.94559
2646
root 0.388672 17.9268 -2.16054 9.88034 -7.72272 2.83761
lowerback 14.9922 0.828109 -5.64671
upperback 10.1862 0.388691 3.1875
thorax 2.41343 -0.213735 6.52476
lowerneck 7.454 0.024948 -9.59253
upperneck 7.68651 -0.634487 1.3354
head 1.21102 -0.557266 2.07883
rclavicle 1.43125e-014 -7.15625e-015
rhumerus 69.4881 -22.1188 -37.7103
rradius 121.258
rwrist -74.6432
rhand -0.617943 11.2575
rfingers 7.12502
rthumb 24.9984 -17.127
lclavicle 1.43125e-014 -7.15625e-015
lhumerus -29.5994 -48.4578 66.249
lradius 123.831
lwrist 48.1107
lhand 2.54235 32.88
lfingers 7.12502
lthumb 28.0232 60.8075
rfemur -28.544 3.62455 15.1774
rtibia 33.223
rfoot -14.0823 -11.0997
rtoes -9.93725
lfemur -24.2022 2.73358 -23.9176
ltibia 29.8804
lfoot -17.0356 12.9443
ltoes -10.2411
